<?xml version="1.0" encoding="UTF-8"?>
<svg id="Layer_1" xmlns="http://www.w3.org/2000/svg" version="1.1" viewBox="0 0 500 500">
  <!-- Generator: Adobe Illustrator 29.0.1, SVG Export Plug-In . SVG Version: 2.1.0 Build 192)  -->
  <defs>
    <style>
      .st0 {
        fill: #f27b57;
      }

      .st1 {
        fill: #010a4c;
      }

      .st2 {
        fill: #ffbe99;
      }

      .st3 {
        fill:rgb(238, 206, 255);
      }

      .st4 {
        fill: #fff;
      }

      .st5 {
        fill: #843fd6;
      }

      .st6 {
        fill:#f9eeff;
      }

      .st7 {
        fill: #fcb830;
      }
    </style>
  </defs>
  <g>
    <polygon class="st1" points="222.3 98 186.9 430.6 452.8 430.6 481.4 162.9 417.1 98 222.3 98"/>
    <polygon class="st6" points="211.9 98 176.2 430.6 442.2 430.6 471 162.9 406.4 98 211.9 98"/>
    <polygon class="st3" points="399.6 162.6 471 162.9 406.4 98 399.6 162.6"/>
    <path class="st5" d="M434,185.7h-176.5c-1,0-1.8-.8-1.5-1.8h0c0-1,1-1.8,2-1.8h176.5c1,0,1.8.8,1.5,1.8h0c0,1-1,1.8-2,1.8Z"/>
    <path class="st5" d="M430.5,218.6h-176.5c-1,0-1.8-.8-1.5-1.8h0c0-1,1-1.8,2-1.8h176.5c1,0,1.8.8,1.5,1.8h0c0,1-1,1.8-2,1.8Z"/>
    <path class="st5" d="M427,251.8h-176.5c-1,0-1.8-.8-1.5-1.8h0c0-1,1-1.8,2-1.8h176.5c1,0,1.8.8,1.5,1.8h0c0,1-1,1.8-2,1.8Z"/>
    <path class="st5" d="M423.7,284.7h-176.5c-1,0-1.8-.8-1.5-1.8h0c0-1,1-1.8,2-1.8h176.5c1,0,1.8.8,1.5,1.8h0c-.3,1-1.3,1.8-2,1.8Z"/>
    <path class="st5" d="M345.9,316.4h-62.6c-1,0-1.8-.8-1.5-1.8h0c0-1,1-1.8,2-1.8h62.3c1,0,1.8.8,1.5,1.8h0c0,1-.8,1.8-1.8,1.8Z"/>
    <path class="st5" d="M341.1,360.7h-62.6c-1,0-1.8-.8-1.5-1.8h0c0-1,1-1.8,2-1.8h62.6c1,0,1.8.8,1.5,1.8h0c-.3,1-1,1.8-2,1.8Z"/>
    <path class="st5" d="M259.3,370.6h-21.5c-1,0-1.8-.8-1.5-1.8l2-19.8c0-1,1-1.8,2-1.8h21.5c1,0,1.8.8,1.5,1.8l-2,19.8c0,1-1,1.8-2,1.8Z"/>
    <path class="st4" d="M248.2,367c-.5,0-.8-.3-1-.5l-4.6-5.1c-.5-.8-.5-1.8.3-2.3.8-.8,1.8-.8,2.3,0l3,3.5,6.8-9.9c.5-.8,1.5-1,2.3-.5s1,1.5.3,2.3l-8.1,11.9s-.5.3-1.3.5c.3,0,0,0,0,0Z"/>
    <path class="st5" d="M264.1,326h-21.5c-1,0-1.8-.8-1.5-1.8l2-19.8c0-1,1-1.8,2-1.8h21.5c1,0,1.8.8,1.5,1.8l-2,19.8c0,1-1,1.8-2,1.8Z"/>
    <path class="st4" d="M253,322.2c-.5,0-.8-.3-1-.5l-4.6-5.1c-.5-.8-.5-1.8.3-2.3.8-.8,1.8-.8,2.3,0l3,3.5,6.8-9.9c.5-.8,1.5-1,2.3-.5.8.5,1,1.5.3,2.3l-8.1,11.9c0,.3-.5.5-1.3.5h0Z"/>
  </g>
  <g>
    <path class="st2" d="M53.1,418.2l-2.8,24.3h-20.8s2.5-20,2.8-23.6c0-3.8,17-20.5,20.8-.8Z"/>
    <path class="st1" d="M76.2,282.2l-43.6,18s-4.6,103.8-8.6,132.5h32.7s17.2-120.3,17-137.5c.3-17.2,2.5-12.9,2.5-12.9Z"/>
    <path class="st5" d="M27.8,449.1l.3-12.9,24.3-.5-2.5,9.4c.3,0-16.7,11.7-22,4.1Z"/>
    <path class="st2" d="M144.8,228.7s6.6-16.5,15.4-19.8c2.8-1,8.4.8,10.9,3.3s2.3,7.1,2.5,8.4c1.5,7.9-10.9,8.9-17.7,13.4-6.6,4.8-11.1-5.3-11.1-5.3Z"/>
    <path class="st1" d="M92.9,210.5c9.1-7.9,13.9,25.8,36.2,47.6l-23.6,9.9c.3,0-39.3-34.4-12.7-57.5Z"/>
    <path class="st1" d="M150.9,218.6s-49.4,25.3-54.7,32.9,2.5,24.8,13.7,19.8c18.5-8.4,53.7-35,53.7-35l-12.7-17.7Z"/>
    <path class="st2" d="M102.8,418.2l1,24.3h-21s-.8-20-1-23.6c-.3-3.8,13.9-20.5,21-.8Z"/>
    <path class="st1" d="M103.8,282.2l-40.5,18s12.2,103.8,12.9,132.5h32.7s-2.3-120.3-5.3-137.5c-3-17.2.3-12.9.3-12.9Z"/>
    <path class="st5" d="M29.6,251.8c3.8,33.4,3,44.1,3,44.1l76,4.1s-.8-79.8-6.6-90.4c-4.1-7.1-14.4-11.4-20.8-13.4-.5-.3-1-.3-1.5-.5-2.3-.8-3.8-1-3.8-1l-13.4-4.1-7.3,3s-1.3.5-3.3,1.3c-.3,0-.5.3-1,.3-3,1.3-7.6,3-12.2,5.3-10.4,5.8-12.9,18-9.1,51.4Z"/>
    <path class="st2" d="M68.6,191l7.3,4.1s7.9,9.9-5.8,10.1c-12.2.5-14.4-10.1-14.4-10.1l12.9-4.1Z"/>
    <path class="st1" d="M107.3,135.3c10.4.5,7.6,21.5-13.7,20-18-1.3-43.6,8.4-43.6,8.4-6.3-7.1-10.1-14.7-10.6-20-.8-9.4,10.1-10.9,10.1-10.9,22.3-24.3,64.1-10.1,57.7,2.5Z"/>
    <path class="st2" d="M52.9,158.1s2.3,23,2.5,36.7l13.2,1.8,7.3-1.8v-1.5c-.3-4.3-1.5-16.2-4.1-25.6-.3-.8-.5-1.5-1-2.3-4.3-8.9-18-7.3-18-7.3Z"/>
    <path class="st2" d="M59.2,161.1s-6.8-10.6-13.2-7.1c-10.1,6.1-2,19.8,10.9,18,10.6-1.3,2.3-10.9,2.3-10.9Z"/>
    <path class="st0" d="M75.9,193.3c-.3-4.3-1.5-16.2-4.1-25.6-.3-.8-.5-1.5-1-2.3l-10.6,10.4c.3-.3-2.3,11.7,15.7,17.5Z"/>
    <path class="st2" d="M100.7,145.4s0,23-1.8,29.4c-2,7.1-8.1,14.4-20.8,14.2-12.7-.3-17.2-7.1-20.5-10.9-3-4.1-2.8-26.1-2.8-26.1l5.3-4.6c19.8,3,31.4,1.3,40.5-2Z"/>
    <path class="st1" d="M51.9,149.5l2.8,7.6s.8,3.8,1,4.3c0,0,8.6-4.3,6.1-17-2.3-10.4-5.3-5.3-5.3-5.3,0,0-7.9,1.8-4.6,10.4Z"/>
    <path class="st0" d="M52.9,161.4s-2.8-4.8-5.3-3.3c-7.1,4.3,1,10.9,5.8,9.9l-.5-6.6Z"/>
    <path class="st5" d="M32.9,288.7c-6.3,2.5-7.9,12.9,2,14.4,13.4,2,74.2,3.8,77-4.6,1.3-4.1-3-6.3-3-6.3,0,0-75.5-13.4-76-3.5Z"/>
    <rect class="st7" x="21.5" y="243" width="192" height="25.8" transform="translate(-152 174) rotate(-48.4)"/>
    <path class="st7" d="M227.4,39.3c-49.9,0-90.4,40.5-90.4,90.4s40.5,90.4,90.4,90.4,90.4-40.5,90.4-90.4-40.3-90.4-90.4-90.4ZM227.4,197.1c-37.2,0-67.1-30.1-67.1-67.1s30.1-67.4,67.1-67.4,67.1,30.1,67.1,67.1-29.9,67.4-67.1,67.4Z"/>
    <path class="st1" d="M31.1,260.4s3-16.5,14.7-31.4c15.2-20,.5-32.7-17.7-19.8-20,14.2-22.3,40.3-22.3,40.3l25.3,10.9Z"/>
    <path class="st2" d="M62,285s17.2,3.3,22.3,11.4c1.5,2.5.8,8.4-1.3,11.4s-6.8,3-7.6,4.1c-1.5,2-10.6-9.1-16.7-14.7-6.1-5.8,3.3-12.2,3.3-12.2Z"/>
    <path class="st2" d="M78,293.8c4.3,1.3,12.7,4.1,15.4,3.8,3,0,3.5,5.8-1.3,5.6-5.1-.3-13.9-.8-13.9-.8,0,0-4.1-7.6-.3-8.6Z"/>
    <path class="st2" d="M77.2,305.7l2-6.3s6.6,4.1,9.9,3.8c5.3-.3,3.8,6.6-1,7.1,0,0-4.1,2.8-6.3,3.3s-7.3-1.5-7.3-1.5l2.8-6.3Z"/>
    <path class="st2" d="M71.4,289.8c4.1-.8,6.6-1.5,10.1.3s4.6,2.5,6.8,3,2.8,3.5-.8,3.3c-3.5-.3-11.4-4.1-15.7-.8,0,.3-5.3-5.1-.5-5.8Z"/>
    <path class="st1" d="M73.6,284.4s-40.3-30.1-45.8-41.8c-6.1-12.4-24.3-1.8-22,10.9,3.3,18.5,42.5,43.1,53.7,49.6l14.2-18.7Z"/>
    <path class="st5" d="M129.1,460.7h-47.4l-.5-19.2h23.8c18.5-1.3,27.4.3,24.1,19.2Z"/>
    <path class="st5" d="M81.2,441.5l-.5-5.3,24.1-.5-.8,9.4s-16.2,4.1-22.8-3.5Z"/>
    <path class="st1" d="M54.9,136c-9.4-3.3-17.2-3.8-13.7-9.6s10.9,4.1,13.7,9.6Z"/>
    <path class="st5" d="M19.2,460.7h38.5s3.3-21.5-19.2-21.5-19.2,21.5-19.2,21.5Z"/>
    <path class="st2" d="M159,218.6s4.3-7.3,10.6-6.3c6.6,1-1.3,10.4-6.8,11.7-5.3,1.5-7.1-4.6-3.8-5.3Z"/>
    <path class="st1" d="M62,145.7c12.2,7.9,24.1,10.4,26.6,6.8s0-4.8,0-4.8c0,0,13.2,4.8,13.2-1.3,0-9.6-29.1-11.9-29.1-11.9,0,0-10.6,4.6-10.6,11.1Z"/>
  </g>
  <g>
    <path class="st6" d="M10.1,199.6c0,2-1.5,3.5-3.5,3.5s-3.5-1.5-3.5-3.5,1.5-3.5,3.5-3.5c1.8-.3,3.5,1.5,3.5,3.5Z"/>
    <path class="st6" d="M361.4,66.4c0,5.1-4.1,8.9-8.9,8.9s-8.9-4.1-8.9-8.9,4.1-8.9,8.9-8.9,8.9,4.1,8.9,8.9Z"/>
    <path class="st6" d="M497.1,324.5c0,4.1-3.3,7.6-7.6,7.6s-7.6-3.3-7.6-7.6,3.3-7.6,7.6-7.6,7.6,3.3,7.6,7.6Z"/>
  </g>
</svg>